<svg xmlns="http://www.w3.org/2000/svg" width="30" height="30" viewBox="0 0 30 30">
<defs>
    <style>
      .cls-1 {
        fill: #fffefe;
        fill-rule: evenodd;
      }
    </style>
  </defs>
  <path id="Forma_1" data-name="Forma 1" class="cls-1" d="M1276.12,30h-26.25a1.874,1.874,0,0,0-1.87,1.874v17.5a1.874,1.874,0,0,0,1.87,1.874h6.88V50h-6.88a0.624,0.624,0,0,1-.62-0.624v-17.5a0.625,0.625,0,0,1,.62-0.624h26.25a0.627,0.627,0,0,1,.63.624V43.123H1278V31.873A1.877,1.877,0,0,0,1276.12,30Zm-20.62,3.126h-3.75a0.625,0.625,0,0,0-.63.625v2.5a0.625,0.625,0,0,0,.63.625h3.75a0.623,0.623,0,0,0,.62-0.625v-2.5A0.623,0.623,0,0,0,1255.5,33.124Zm-0.63,2.5h-2.5v-1.25h2.5v1.25h0Zm13.75-3.124a2.5,2.5,0,1,0,2.5,2.5A2.5,2.5,0,0,0,1268.62,32.5Zm0,3.749A1.249,1.249,0,1,1,1269.87,35,1.25,1.25,0,0,1,1268.62,36.248Zm3.75-3.749a2.5,2.5,0,1,0,2.5,2.5A2.5,2.5,0,0,0,1272.37,32.5Zm0,3.749A1.249,1.249,0,1,1,1273.62,35,1.25,1.25,0,0,1,1272.37,36.248Zm-11.25,5V40h-9.37a0.627,0.627,0,0,0-.63.626v2.5a0.627,0.627,0,0,0,.63.626H1258V42.5h-5.63V41.248h8.75ZM1268,40a10,10,0,1,0,10,10A10,10,0,0,0,1268,40Zm0,18.751A8.75,8.75,0,1,1,1276.75,50,8.752,8.752,0,0,1,1268,58.749Zm2.5-10V48.123a1.252,1.252,0,0,0-1.25-1.251h-2.5a1.252,1.252,0,0,0-1.25,1.251v1.25a1.249,1.249,0,0,0,1.25,1.249h2.5v1.25h-2.5V51.248h-1.25v0.625a1.25,1.25,0,0,0,1.25,1.25h2.5a1.25,1.25,0,0,0,1.25-1.25v-1.25a1.25,1.25,0,0,0-1.25-1.249h-2.5v-1.25h2.5v0.625h1.25Zm-3.13-3.126h1.25V47.5h-1.25V45.622Zm0,6.875h1.25v1.876h-1.25V52.5Z" transform="translate(-1248 -30)"/>
</svg>
