<?xml version="1.0" encoding="utf-8"?>
<!-- Generator: Adobe Illustrator 22.0.1, SVG Export Plug-In . SVG Version: 6.00 Build 0)  -->
<svg version="1.1" id="form" xmlns="http://www.w3.org/2000/svg" xmlns:xlink="http://www.w3.org/1999/xlink" x="0px" y="0px"
	 viewBox="0 0 68.8 21.7" style="enable-background:new 0 0 68.8 21.7;" xml:space="preserve">
<style type="text/css">
	.st0{fill:#FFFFFD;stroke:#FFFFFF;stroke-width:2;stroke-miterlimit:10;}
	.st1{fill:#231F20;}
	.st2{fill:#FFFFFD;}
	.st3{fill:none;stroke:#FFFFFD;stroke-width:2;stroke-miterlimit:10;}
</style>
<g>
	<path class="st0" d="M35.6,20.7H10.8c-5.4,0-9.8-4.4-9.8-9.8v0C1,5.4,5.4,1,10.9,1h24.7V20.7z"/>
	<g>
		<path class="st1" d="M13.8,13.7c-0.4,0.7-0.9,1.2-1.6,1.6c-0.7,0.4-1.5,0.6-2.5,0.6H6.2v-9h3.4c1,0,1.8,0.2,2.5,0.6
			c0.7,0.4,1.3,0.9,1.6,1.6c0.4,0.7,0.6,1.5,0.6,2.4S14.2,13,13.8,13.7z M11.5,13.2c0.5-0.5,0.7-1.1,0.7-1.9s-0.2-1.5-0.7-1.9
			C11,9,10.3,8.7,9.5,8.7h-1v5.2h1C10.3,13.9,11,13.7,11.5,13.2z"/>
		<path class="st1" d="M17.7,6.8V12c0,0.6,0.1,1.1,0.4,1.4c0.3,0.3,0.7,0.5,1.2,0.5s0.9-0.2,1.2-0.5c0.3-0.3,0.4-0.8,0.4-1.4V6.8
			h2.2V12c0,0.9-0.2,1.6-0.5,2.2c-0.3,0.6-0.8,1-1.4,1.3c-0.6,0.3-1.2,0.4-2,0.4c-0.7,0-1.4-0.1-1.9-0.4c-0.6-0.3-1-0.7-1.3-1.3
			c-0.3-0.6-0.5-1.3-0.5-2.2V6.8H17.7z"/>
		<path class="st1" d="M31.2,7.3c0.7,0.4,1.2,0.9,1.6,1.7c0.4,0.7,0.6,1.5,0.6,2.4s-0.2,1.7-0.6,2.4c-0.4,0.7-1,1.3-1.7,1.7
			c-0.7,0.4-1.5,0.6-2.3,0.6c-0.8,0-1.6-0.2-2.3-0.6c-0.7-0.4-1.2-0.9-1.7-1.7c-0.4-0.7-0.6-1.5-0.6-2.4s0.2-1.7,0.6-2.4
			c0.4-0.7,1-1.3,1.7-1.7c0.7-0.4,1.5-0.6,2.3-0.6C29.7,6.7,30.5,6.9,31.2,7.3z M27.1,9.4c-0.4,0.5-0.6,1.1-0.6,1.9
			c0,0.8,0.2,1.4,0.6,1.9c0.4,0.5,1,0.7,1.7,0.7c0.7,0,1.3-0.2,1.7-0.7c0.4-0.5,0.6-1.1,0.6-1.9c0-0.8-0.2-1.4-0.6-1.9
			c-0.4-0.5-1-0.7-1.7-0.7C28.1,8.7,27.5,8.9,27.1,9.4z"/>
		<path class="st2" d="M46.7,7.6c0.8,0.6,1.2,1.4,1.5,2.5h-2.3c-0.2-0.4-0.4-0.7-0.8-1c-0.4-0.2-0.8-0.4-1.3-0.4
			c-0.6,0-1.2,0.2-1.5,0.7c-0.4,0.5-0.6,1.1-0.6,1.9c0,0.8,0.2,1.4,0.6,1.9c0.4,0.5,0.9,0.7,1.5,0.7c0.5,0,0.9-0.1,1.3-0.4
			c0.4-0.2,0.6-0.6,0.8-1h2.3c-0.2,1-0.7,1.8-1.5,2.5c-0.8,0.6-1.7,0.9-2.9,0.9c-0.9,0-1.7-0.2-2.3-0.6c-0.7-0.4-1.2-0.9-1.5-1.6
			c-0.4-0.7-0.5-1.5-0.5-2.4s0.2-1.7,0.5-2.4c0.4-0.7,0.9-1.2,1.5-1.6c0.7-0.4,1.4-0.6,2.3-0.6C45,6.7,46,7,46.7,7.6z"/>
		<path class="st2" d="M55.3,15.9l-1-1.3c-0.1,0.1-0.2,0.2-0.2,0.3c-0.2,0.3-0.5,0.6-0.8,0.8S52.4,16,52,16c-0.6,0-1.1-0.1-1.6-0.4
			c-0.4-0.2-0.8-0.6-1-1s-0.3-0.9-0.3-1.4c0-0.7,0.2-1.3,0.6-1.8c0.4-0.5,0.9-0.7,1.5-0.8L51,10.2c-0.1-0.2-0.2-0.4-0.3-0.6
			c-0.1-0.2-0.1-0.4-0.1-0.7c0-0.4,0.1-0.7,0.3-1.1c0.2-0.3,0.5-0.6,0.9-0.8c0.4-0.2,0.9-0.3,1.4-0.3c0.8,0,1.4,0.2,1.8,0.5
			s0.7,0.8,0.9,1.3C56,8.9,56.1,9.3,56,9.7h-2c0-0.1,0-0.3,0-0.5c0-0.5-0.3-0.7-0.7-0.7c-0.2,0-0.3,0.1-0.5,0.2S52.6,9,52.6,9.1
			c0,0.1,0,0.3,0.1,0.4c0.1,0.1,0.2,0.3,0.3,0.5l4.5,5.9H55.3z M52.7,13.9c0.2-0.2,0.3-0.4,0.3-0.7c0-0.3-0.1-0.5-0.3-0.7
			c-0.2-0.2-0.5-0.3-0.8-0.3s-0.5,0.1-0.7,0.3c-0.2,0.2-0.3,0.4-0.3,0.7c0,0.3,0.1,0.6,0.3,0.8c0.2,0.2,0.5,0.3,0.8,0.3
			C52.3,14.1,52.5,14,52.7,13.9z"/>
		<path class="st2" d="M64.2,6.8v1.7h-3.7v2h2.9v1.7h-2.9v3.7h-2.2v-9H64.2z"/>
	</g>
	<path class="st3" d="M61.7,20.7H35.6V1h26.1c3.4,0,6.1,2.7,6.1,6.1v7.5C67.8,18,65.1,20.7,61.7,20.7z"/>
</g>
</svg>
