<svg xmlns="http://www.w3.org/2000/svg" width="18.28" height="23" viewBox="0 0 18.28 23">
  <metadata><?xpacket begin="﻿" id="W5M0MpCehiHzreSzNTczkc9d"?>
<x:xmpmeta xmlns:x="adobe:ns:meta/" x:xmptk="Adobe XMP Core 5.6-c138 79.159824, 2016/09/14-01:09:01        ">
   <rdf:RDF xmlns:rdf="http://www.w3.org/1999/02/22-rdf-syntax-ns#">
      <rdf:Description rdf:about=""/>
   </rdf:RDF>
</x:xmpmeta>
                                                                                                    
                                                                                                    
                                                                                                    
                                                                                                    
                                                                                                    
                                                                                                    
                                                                                                    
                                                                                                    
                                                                                                    
                                                                                                    
                                                                                                    
                                                                                                    
                                                                                                    
                                                                                                    
                                                                                                    
                                                                                                    
                                                                                                    
                                                                                                    
                                                                                                    
                                                                                                    
                           
<?xpacket end="w"?></metadata>
<defs>
    <style>
      .cls-1 {
        fill: #e2523f;
        fill-rule: evenodd;
      }
    </style>
  </defs>
  <path class="cls-1" d="M1033.03,715.391h0.15a4,4,0,0,0,3.13-1.456c1.71-2.069,1.43-5.613,1.4-5.95-0.11-2.538-1.23-3.75-2.16-4.318a4.7,4.7,0,0,0-2.39-.675h-0.08a4.7,4.7,0,0,0-2.39.653c-0.93.569-2.07,1.783-2.18,4.34-0.04.337-.32,3.881,1.39,5.95A4,4,0,0,0,1033.03,715.391Zm-3.34-7.287c0-.014.01-0.03,0.01-0.039,0.14-3.41,2.41-3.78,3.38-3.78h0.05c1.2,0.029,3.24.55,3.38,3.78a0.051,0.051,0,0,0,.01.039c0,0.032.31,3.272-1.1,4.975a2.821,2.821,0,0,1-2.29,1.022h-0.05a2.788,2.788,0,0,1-2.28-1.022C1029.39,711.385,1029.69,708.13,1029.69,708.1Zm12.55,13.164v-0.137c-0.03-.944-0.08-3.147-2.01-3.855a0.138,0.138,0,0,1-.05-0.013,12.624,12.624,0,0,1-3.69-1.8,0.579,0.579,0,0,0-.84.158,0.67,0.67,0,0,0,.15.892,13.546,13.546,0,0,0,4.06,1.986c1.04,0.4,1.15,1.584,1.18,2.672a0.5,0.5,0,0,0,.01.12,9.935,9.935,0,0,1-.09,1.469,16.721,16.721,0,0,1-15.69-.007,9.918,9.918,0,0,1-.1-1.47c0-.036.01-0.074,0.01-0.118,0.03-1.085.15-2.272,1.18-2.668a13.343,13.343,0,0,0,4.06-1.99,0.668,0.668,0,0,0,.15-0.89,0.576,0.576,0,0,0-.84-0.159,12.165,12.165,0,0,1-3.69,1.8,0.36,0.36,0,0,0-.04.015c-1.93.711-1.99,2.914-2.02,3.856v0.133a7.742,7.742,0,0,0,.22,2.155,0.628,0.628,0,0,0,.24.3,17.683,17.683,0,0,0,17.36,0,0.609,0.609,0,0,0,.23-0.3A8,8,0,0,0,1042.24,721.268Z" transform="translate(-1023.97 -703)"/>
</svg>
