<svg xmlns="http://www.w3.org/2000/svg" width="20" height="23.812" viewBox="0 0 20 23.812">
  <metadata><?xpacket begin="﻿" id="W5M0MpCehiHzreSzNTczkc9d"?>
<x:xmpmeta xmlns:x="adobe:ns:meta/" x:xmptk="Adobe XMP Core 5.6-c138 79.159824, 2016/09/14-01:09:01        ">
   <rdf:RDF xmlns:rdf="http://www.w3.org/1999/02/22-rdf-syntax-ns#">
      <rdf:Description rdf:about=""/>
   </rdf:RDF>
</x:xmpmeta>
                                                                                                    
                                                                                                    
                                                                                                    
                                                                                                    
                                                                                                    
                                                                                                    
                                                                                                    
                                                                                                    
                                                                                                    
                                                                                                    
                                                                                                    
                                                                                                    
                                                                                                    
                                                                                                    
                                                                                                    
                                                                                                    
                                                                                                    
                                                                                                    
                                                                                                    
                                                                                                    
                           
<?xpacket end="w"?></metadata>
<defs>
    <style>
      .cls-1 {
        fill: #e2523f;
        fill-rule: evenodd;
      }
    </style>
  </defs>
  <path class="cls-1" d="M1330.29,718.068a2.149,2.149,0,0,0-3.28-.417l-1.71,1.374c-0.11-.085-0.23-0.169-0.34-0.246a4.384,4.384,0,0,1-.45-0.329,16.961,16.961,0,0,1-3.52-4.241,10.459,10.459,0,0,1-1.05-2.287c0.44-.322.85-0.664,1.25-0.994,0.16-.121.31-0.25,0.46-0.373a2.362,2.362,0,0,0,.41-3.446l-1.16-1.528c-0.13-.174-0.26-0.352-0.39-0.529-0.25-.35-0.52-0.707-0.79-1.044a2.281,2.281,0,0,0-1.53-.94,2.3,2.3,0,0,0-1.72.524c-0.01,0-.01,0-0.01.01l-1.85,1.5a3.729,3.729,0,0,0-1.32,2.185,9.293,9.293,0,0,0,.18,3.778,22.015,22.015,0,0,0,2.93,6.828,23.345,23.345,0,0,0,6.82,7.076,11.735,11.735,0,0,0,4.09,1.833c0.1,0.015.2,0.035,0.3,0.049a3.587,3.587,0,0,0,2.93-.882,0.052,0.052,0,0,1,.02-0.025,11.326,11.326,0,0,1,.95-0.793c0.23-.178.47-0.365,0.7-0.563a2.509,2.509,0,0,0,.93-1.634,2.428,2.428,0,0,0-.54-1.8Zm1.1,5.47c-0.01,0-.01,0,0,0-0.22.183-.43,0.351-0.66,0.533a12.837,12.837,0,0,0-1.05.877,2.285,2.285,0,0,1-1.91.565c-0.07-.011-0.14-0.02-0.22-0.034a10.208,10.208,0,0,1-3.61-1.644,21.943,21.943,0,0,1-6.43-6.662,20.879,20.879,0,0,1-2.76-6.418,7.441,7.441,0,0,1-.17-3.19,2.326,2.326,0,0,1,.84-1.4l1.85-1.489a1.074,1.074,0,0,1,.77-0.264,1.029,1.029,0,0,1,.66.441,0.017,0.017,0,0,1,.01.02c0.27,0.318.51,0.647,0.77,1,0.13,0.179.26,0.359,0.4,0.544l1.15,1.524a0.975,0.975,0,0,1-.18,1.543c-0.16.13-.31,0.258-0.47,0.38-0.45.374-.89,0.726-1.35,1.063a0.114,0.114,0,0,0-.03.017,1.044,1.044,0,0,0-.38,1.1,0.076,0.076,0,0,0,.01.048,11.053,11.053,0,0,0,1.24,2.821v0a18.346,18.346,0,0,0,3.8,4.576,5.8,5.8,0,0,0,.56.41c0.16,0.109.31,0.215,0.44,0.322a0.555,0.555,0,0,1,.05.041,1.068,1.068,0,0,0,.47.187,0.981,0.981,0,0,0,.77-0.253l1.85-1.494a1.106,1.106,0,0,1,.77-0.286,1,1,0,0,1,.65.458c0.01,0,.01,0,0.01.007l2.33,3.087A1.02,1.02,0,0,1,1331.39,723.538Z" transform="translate(-1313.16 -703.063)"/>
</svg>
