<svg xmlns="http://www.w3.org/2000/svg" width="23" height="53" viewBox="0 0 23 53"><g><g><path fill="#fff" d="M23 11.681v29.63c0 6.444-5.159 11.687-11.5 11.687S0 47.755 0 41.312v-29.63C0 5.24 5.159-.005 11.5-.005S23 5.24 23 11.681zm-2.006 29.63V27.516H2.005v13.797c0 5.32 4.26 9.648 9.495 9.648 5.235 0 9.495-4.328 9.494-9.648zm.001-29.63c0-5.319-4.26-9.646-9.495-9.646-5.235 0-9.495 4.327-9.495 9.646v13.797h18.99zM5.556 29.817v7.81c0 .562-.448 1.02-1.002 1.02a1.011 1.011 0 0 1-1.003-1.02v-7.81c0-.562.448-1.02 1.003-1.02a1.01 1.01 0 0 1 1.002 1.02z"/></g></g></svg>