<svg xmlns="http://www.w3.org/2000/svg" width="51" height="51" viewBox="0 0 51 51"><g><g><path fill="#fff" d="M38.092 48.048c-.917 1.462-2.496 2.28-4.022 2.084-.797-.102-1.976-.53-3.066-1.983-1.715-2.286-3.86-6.704-5.935-10.977-1.542-3.174-3.13-6.444-4.417-8.552-.215.132-.387.235-.549.331-.46.275-.856.511-2.046 1.323a2.08 2.08 0 0 1-1.462.354c-1.065-.137-2.922.1-5.824-7.094C9.345 19.997 5.159 7.687 4.623 5.48c-.895-3.686-.64-4.301-.212-4.722.247-.243.904-.452 1.456.214 3.975 4.793 30.495 39.71 32.307 42.485.88 1.348.849 3.108-.082 4.591zm-1.52-3.543c-1.76-2.698-24.552-32.843-29.34-39.003-.443-.57-1.045-1.569-.48.243 1.458 4.673 6.496 18.9 8.281 21.322 1.108 1.504 1.15 2.002 1.806 1.663.05.006.082.002.14-.037 1.238-.845 2.805-1.78 3.448-2.195a.958.958 0 0 1 1.312.268c1.436 2.124 3.193 5.74 5.052 9.57 2.036 4.191 4.14 8.525 5.745 10.664.545.727 1.16 1.154 1.779 1.233.788.101 1.635-.37 2.156-1.202.415-.66.659-1.672.1-2.526zm14.149-32.95c-2.428 2.356-4.698 4.658-6.522 6.508-1.19 1.208-2.13 2.162-2.794 2.806-1.04 1.009-2.632 1.494-4.37 1.333a7.21 7.21 0 0 1-.518-.067 7.74 7.74 0 0 1-3.671-1.704L27.4 25.794a.956.956 0 0 1-1.354-.021.956.956 0 0 1 .02-1.353l5.442-5.359c-2.664-3.212-2.853-6.697-.408-9.069L40.668.709a.957.957 0 1 1 1.333 1.374l-8.313 8.066 1.655 1.656 7.692-7.464a.957.957 0 0 1 1.333 1.374l-7.672 7.444 1.699 1.7 7.647-7.419a.957.957 0 0 1 1.333 1.374l-7.627 7.4 1.805 1.806 1.284-1.3c1.83-1.858 4.109-4.168 6.552-6.539a.957.957 0 1 1 1.332 1.375zm-10.523 7.817l-7.88-7.887c-2.028 2.12-.696 5.003 1.26 7.02 1 1.03 2.29 1.666 3.634 1.79 1.162.11 2.231-.19 2.86-.8l.126-.123zM21.823 34.49C19.033 37.63 11.19 46.312 8.465 48.73c-1.088.965-2.436 1.232-3.702 1.021a5.348 5.348 0 0 1-2.965-1.561c-1.338-1.413-2.021-3.952.457-6.458 3.404-3.44 8.363-7.335 12.095-10.15a.958.958 0 0 1 1.152 1.528c-3.685 2.78-8.57 6.617-11.886 9.969-1.306 1.32-1.462 2.704-.428 3.796.989 1.044 2.835 1.463 4.007.423 2.358-2.091 9.347-9.745 13.198-14.079a.957.957 0 0 1 1.43 1.271z"/></g></g></svg>